<mxfile host="app.diagrams.net" modified="2023-05-09T15:37:18.829Z" agent="Mozilla/5.0 (Windows NT 10.0; Win64; x64) AppleWebKit/537.36 (KHTML, like Gecko) Chrome/113.0.0.0 Safari/537.36" version="21.2.9" etag="G5a3ZahhUpuP6k1G_UPE" type="github">
  <diagram name="Page-1" id="itXvB60ISjNfNaF0H8Bf">
    <mxGraphModel>
      <root>
        <mxCell id="0" />
        <mxCell id="1" parent="0" />
      </root>
    </mxGraphModel>
  </diagram>
</mxfile>
